<svg width="203" height="32" viewBox="0 0 203 32" fill="none" xmlns="http://www.w3.org/2000/svg">
<path fill-rule="evenodd" clip-rule="evenodd" d="M14.1536 0L14.7281 0.402337L25.9844 8.28576C26.4119 8.58518 26.6665 9.07433 26.6665 9.59628V29.981C26.6665 31.2314 25.2966 31.9985 24.2305 31.3452L13.5589 24.8055L13.0755 24.5093L1.66839 31.8142C1.49711 31.9314 1.28989 32 1.06665 32C0.477555 32 0 31.5224 0 30.9334V9.61647C0 9.06125 0.287847 8.54572 0.760512 8.25441L13.5566 0.36798L14.1536 0ZM13.0496 3.18638V21.9927L2.1333 28.9832V9.91425L13.0496 3.18638Z" fill="#186367"/>
<path d="M41.3305 26.5369C40.1835 26.5369 39.1424 26.3181 38.2136 25.8838C37.2815 25.4496 36.5478 24.8164 36.009 23.991C35.4703 23.1622 35.1992 22.1545 35.1992 20.9677C35.1992 18.9721 35.9429 17.4539 37.4303 16.413C38.9176 15.3721 41.2644 14.835 44.4738 14.8019L46.7577 14.7654V13.6715C46.7577 12.8361 46.5131 12.193 46.0272 11.7422C45.5414 11.2913 44.7812 11.0692 43.7532 11.0825C43.0161 11.0957 42.3088 11.2714 41.6379 11.6096C40.9636 11.951 40.4975 12.5444 40.2397 13.3897H35.9693C36.0388 12.0737 36.4222 10.9897 37.1196 10.1377C37.817 9.28577 38.7557 8.65261 39.939 8.23493C41.1222 7.81724 42.4741 7.6084 43.9978 7.6084C45.8488 7.6084 47.3361 7.84045 48.4599 8.30454C49.5837 8.76864 50.4001 9.43163 50.9124 10.2968C51.4247 11.162 51.6759 12.1864 51.6759 13.3731V26.1822H47.389L46.9659 23.0462C46.3445 24.3623 45.5678 25.2739 44.639 25.7777C43.7069 26.2816 42.603 26.5369 41.3272 26.5369H41.3305ZM43.069 23.1523C43.5252 23.1523 43.9747 23.0661 44.4143 22.897C44.8539 22.728 45.2472 22.4992 45.6009 22.2108C45.9512 21.9224 46.2289 21.5976 46.4338 21.2329C46.6387 20.8683 46.7478 20.4937 46.7577 20.1058V17.4273L44.8968 17.4439C44.054 17.4572 43.264 17.5599 42.5237 17.7522C41.7866 17.9445 41.1916 18.2594 40.7388 18.6937C40.2893 19.1279 40.0612 19.7147 40.0612 20.4572C40.0612 21.3025 40.3521 21.9622 40.9305 22.4396C41.509 22.9136 42.2229 23.1523 43.0657 23.1523H43.069Z" fill="black"/>
<path d="M54.0859 26.1853V7.96625H59.1298V10.5387C59.4107 10.0911 59.7776 9.6602 60.2271 9.24251C60.6766 8.82482 61.2484 8.48338 61.9392 8.21156C62.63 7.93973 63.4497 7.80713 64.3983 7.80713C65.5122 7.80713 66.5501 8.02592 67.5185 8.46018C68.4836 8.89444 69.267 9.58064 69.8652 10.5121C70.4635 11.447 70.761 12.6636 70.761 14.1686V26.1853H65.6312V14.8017C65.6312 13.8139 65.3337 13.0746 64.7454 12.5807C64.1537 12.0868 63.4431 11.8414 62.6102 11.8414C62.0483 11.8414 61.5062 11.9409 60.984 12.1398C60.4618 12.3387 60.0387 12.6404 59.7115 13.0382C59.3843 13.4393 59.219 13.9299 59.219 14.5199V26.1853H54.0892H54.0859Z" fill="black"/>
<path d="M75.2718 26.1854V11.5432H71.917V7.96633H75.2718V5.34087C75.2718 3.87234 75.7048 2.73199 76.5708 1.92314C77.4368 1.11097 78.6564 0.706543 80.2264 0.706543H84.391L84.4274 4.14085H82.0212C81.3766 4.14085 80.9304 4.29997 80.6858 4.61821C80.4412 4.93644 80.3156 5.46352 80.3156 6.20276V7.96633H84.2522V11.5432H80.4214V26.1854H75.2751H75.2718ZM87.1674 5.35745V0.723118H92.1584V5.35745H87.1674ZM87.2203 26.1854V7.96633H92.122V26.1854H87.2203Z" fill="black"/>
<path d="M94.793 26.1854V0.000488281H99.9227V15.5245L106.599 7.96636H112.116L105.509 15.2261L112.344 26.1854H107.231L102.329 18.3256L99.9227 20.9146V26.1821H94.793V26.1854Z" fill="black"/>
<path d="M122.2 26.537C120.396 26.537 118.813 26.1591 117.447 25.3999C116.082 24.6408 115.021 23.5701 114.258 22.1844C113.494 20.7988 113.114 19.1645 113.114 17.2849C113.114 15.4053 113.461 13.8241 114.159 12.3589C114.856 10.8936 115.861 9.74003 117.173 8.88808C118.485 8.03613 120.072 7.61182 121.933 7.61182C123.794 7.61182 125.334 8.00298 126.59 8.78532C127.846 9.56765 128.791 10.6516 129.436 12.0439C130.08 13.4362 130.401 15.044 130.401 16.8639V18.2562H118.191C118.191 19.1844 118.343 19.9932 118.647 20.6794C118.951 21.3656 119.394 21.896 119.973 22.264C120.551 22.6353 121.252 22.8176 122.071 22.8176C122.951 22.8176 123.718 22.6286 124.372 22.254C125.026 21.8794 125.486 21.2629 125.744 20.4043H130.381C130.169 21.6971 129.654 22.801 128.834 23.7159C128.014 24.6309 127.019 25.3303 125.846 25.8143C124.676 26.295 123.456 26.537 122.19 26.537H122.2ZM118.194 15.1898H125.608C125.608 14.4605 125.469 13.7942 125.195 13.1909C124.921 12.5876 124.511 12.1036 123.965 11.7456C123.42 11.3876 122.739 11.2086 121.919 11.2086C121.1 11.2086 120.465 11.4008 119.907 11.782C119.351 12.1633 118.922 12.6605 118.624 13.2705C118.327 13.8804 118.181 14.5202 118.194 15.1898Z" fill="black"/>
<path d="M136.115 31.9996C134.872 31.9996 133.738 31.7941 132.707 31.383V28.1045L134.515 28.1742C135.298 28.2206 135.933 28.1841 136.412 28.0581C136.891 27.9322 137.255 27.773 137.503 27.5741C137.751 27.3752 137.926 27.1664 138.038 26.9476C138.151 26.7288 138.23 26.5564 138.276 26.4272L138.61 25.4227L131.547 7.95947H136.624L140.98 19.837L145.373 7.95947H150.397L143.036 26.2846C142.405 27.836 141.734 29.0228 141.023 29.8449C140.316 30.667 139.552 31.2306 138.739 31.5355C137.926 31.8405 137.05 31.993 136.111 31.993L136.115 31.9996Z" fill="black"/>
<rect x="159.568" y="8.82959" width="43.3404" height="23.1702" rx="11.5851" fill="#186367"/>
<path d="M172.722 24.5346C172.358 24.5346 172.05 24.4866 171.798 24.3906C171.55 24.2946 171.346 24.1726 171.186 24.0246C171.026 23.8726 170.902 23.7186 170.814 23.5626C170.726 23.4026 170.662 23.2626 170.622 23.1426L170.502 24.4146H169.656V15.4986H170.772V19.1946C170.824 19.0906 170.902 18.9766 171.006 18.8526C171.114 18.7286 171.252 18.6086 171.42 18.4926C171.588 18.3766 171.786 18.2806 172.014 18.2046C172.246 18.1286 172.51 18.0906 172.806 18.0906C173.582 18.0906 174.198 18.3606 174.654 18.9006C175.114 19.4406 175.344 20.2366 175.344 21.2886C175.344 21.9406 175.246 22.5106 175.05 22.9986C174.854 23.4826 174.562 23.8606 174.174 24.1326C173.786 24.4006 173.302 24.5346 172.722 24.5346ZM172.524 23.6826C173.028 23.6826 173.438 23.4886 173.754 23.1006C174.07 22.7086 174.228 22.0866 174.228 21.2346C174.228 20.5106 174.08 19.9506 173.784 19.5546C173.492 19.1546 173.064 18.9546 172.5 18.9546C172.088 18.9546 171.756 19.0446 171.504 19.2246C171.256 19.4006 171.072 19.6586 170.952 19.9986C170.836 20.3386 170.776 20.7506 170.772 21.2346C170.772 22.1026 170.906 22.7286 171.174 23.1126C171.446 23.4926 171.896 23.6826 172.524 23.6826ZM179.438 24.5346C178.862 24.5346 178.354 24.4086 177.914 24.1566C177.474 23.9046 177.13 23.5426 176.882 23.0706C176.634 22.5986 176.51 22.0326 176.51 21.3726C176.51 20.7206 176.622 20.1486 176.846 19.6566C177.07 19.1646 177.394 18.7806 177.818 18.5046C178.246 18.2286 178.76 18.0906 179.36 18.0906C179.944 18.0906 180.438 18.2166 180.842 18.4686C181.246 18.7206 181.552 19.0766 181.76 19.5366C181.972 19.9926 182.078 20.5346 182.078 21.1626V21.5706H177.632C177.632 21.9626 177.696 22.3186 177.824 22.6386C177.956 22.9546 178.154 23.2066 178.418 23.3946C178.682 23.5826 179.016 23.6766 179.42 23.6766C179.816 23.6766 180.156 23.5846 180.44 23.4006C180.728 23.2166 180.912 22.9506 180.992 22.6026H182.036C181.964 23.0226 181.796 23.3766 181.532 23.6646C181.272 23.9526 180.958 24.1706 180.59 24.3186C180.226 24.4626 179.842 24.5346 179.438 24.5346ZM177.638 20.8206H181.01C181.01 20.4646 180.95 20.1446 180.83 19.8606C180.71 19.5726 180.526 19.3466 180.278 19.1826C180.034 19.0146 179.726 18.9306 179.354 18.9306C178.966 18.9306 178.644 19.0246 178.388 19.2126C178.132 19.3966 177.942 19.6346 177.818 19.9266C177.694 20.2146 177.634 20.5126 177.638 20.8206ZM185.606 24.4446C185.178 24.4446 184.846 24.3866 184.61 24.2706C184.374 24.1546 184.208 23.9826 184.112 23.7546C184.02 23.5266 183.974 23.2466 183.974 22.9146V19.0206H182.966V18.2106H184.004L184.274 16.4046H185.09V18.2046H186.488V19.0206H185.09V22.8786C185.09 23.0986 185.112 23.2606 185.156 23.3646C185.204 23.4646 185.282 23.5286 185.39 23.5566C185.498 23.5846 185.65 23.5986 185.846 23.5986H186.524V24.3426C186.448 24.3706 186.332 24.3946 186.176 24.4146C186.024 24.4346 185.834 24.4446 185.606 24.4446ZM189.701 24.5346C189.297 24.5346 188.941 24.4646 188.633 24.3246C188.329 24.1806 188.089 23.9746 187.913 23.7066C187.741 23.4386 187.655 23.1146 187.655 22.7346C187.655 22.0466 187.895 21.5346 188.375 21.1986C188.855 20.8626 189.625 20.6826 190.685 20.6586L191.789 20.6286V20.1426C191.789 19.7626 191.675 19.4626 191.447 19.2426C191.219 19.0186 190.867 18.9066 190.391 18.9066C190.035 18.9106 189.721 18.9946 189.449 19.1586C189.177 19.3226 189.003 19.5906 188.927 19.9626H187.949C187.973 19.5586 188.085 19.2186 188.285 18.9426C188.489 18.6626 188.775 18.4506 189.143 18.3066C189.511 18.1626 189.945 18.0906 190.445 18.0906C190.985 18.0906 191.433 18.1666 191.789 18.3186C192.149 18.4706 192.417 18.6946 192.593 18.9906C192.773 19.2866 192.863 19.6506 192.863 20.0826V24.4146H191.915L191.831 23.2506C191.595 23.7346 191.291 24.0706 190.919 24.2586C190.551 24.4426 190.145 24.5346 189.701 24.5346ZM190.031 23.7366C190.243 23.7366 190.451 23.6986 190.655 23.6226C190.863 23.5466 191.051 23.4446 191.219 23.3166C191.391 23.1846 191.529 23.0386 191.633 22.8786C191.737 22.7146 191.789 22.5466 191.789 22.3746V21.3126L190.871 21.3306C190.395 21.3386 189.999 21.3866 189.683 21.4746C189.367 21.5626 189.129 21.7006 188.969 21.8886C188.809 22.0766 188.729 22.3226 188.729 22.6266C188.729 22.9746 188.851 23.2466 189.095 23.4426C189.339 23.6386 189.651 23.7366 190.031 23.7366Z" fill="white"/>
</svg>
